<svg id="Capa_1" enable-background="new 0 0 512 512" height="512" viewBox="0 0 512 512" width="512" xmlns="http://www.w3.org/2000/svg"><g><g><g><path d="m157.189 336.198c18.358-47.576 32.722-171.74 28.429-215.588-3.851-39.34-19.335-79.461-59.119-94.873 0 0 34.277.096 45.79 2.281 18.715 3.551 30.779 7.673 48.001 15.89 57.842 27.595 98.713 85.619 113.246 147.015 2.206 9.321 3.891 18.763 5.127 28.261 3.426 26.335 4.113 52.667-.154 84.41z" fill="#a274bf"/></g><g><path d="m338.512 303.593-18.227 3.279c1.68-30.324.672-67.217-1.986-87.685-1.232-9.501-2.922-18.94-5.132-28.268-14.531-61.393-56.688-108.489-114.527-136.084-17.229-8.218-29.286-12.331-48.002-15.885-.611-.112-1.293-.234-2.057-.367-6.354-5.234-13.676-9.592-22.076-12.851 0 0 34.276.102 45.782 2.281 18.716 3.554 30.783 7.678 48.002 15.895 57.849 27.596 98.713 85.618 113.244 147.01 2.21 9.327 3.9 18.767 5.132 28.268 3.421 26.334 4.114 52.667-.153 84.407z" fill="#925cb4"/></g><g><path d="m385.609 428.595c-2.364-50.94-3.662-84.977 14.282-125.215 16.099-36.101 43.48-69.262 86.096-71.297 0 0-26.106-9.96-37.719-11.53-18.878-2.552-38.066-3.25-57.003-.905-63.601 7.879-120.729 49.992-153.94 103.637-5.042 8.144-9.627 16.568-13.804 25.187-11.581 23.899-20.564 48.661-26.559 80.123z" fill="#fe7d43"/></g><g><path d="m485.991 232.078c-42.615 2.037-69.997 35.202-86.096 71.3-17.952 40.243-16.649 74.274-14.287 125.219h-20.875c-2.362-50.945-3.666-84.976 14.287-125.219 14.724-33.023 42.422-72.441 79.661-80.475 12.31 3.453 27.31 9.175 27.31 9.175z" fill="#fd6930"/></g><g><path d="m126.391 428.595c2.364-50.94 3.662-84.977-14.282-125.215-16.099-36.101-43.48-69.262-86.096-71.297 0 0 26.106-9.96 37.719-11.53 18.878-2.552 38.066-3.25 57.003-.905 63.601 7.879 120.729 49.992 153.94 103.637 5.042 8.144 9.627 16.568 13.804 25.187 11.581 23.899 20.564 48.661 26.559 80.123z" fill="#7acaa6"/></g><g><path d="m315.04 428.598h-20.457c-5.855-25.335-13.849-46.403-23.757-66.83-4.175-8.615-8.757-17.036-13.798-25.182-33.217-53.644-90.343-95.76-153.945-103.641-18.94-2.342-38.125-1.65-57.004.906-1.11.153-2.362.377-3.707.672-5.183-1.334-10.641-2.169-16.364-2.444 0 0 26.109-9.959 37.717-11.527 18.879-2.556 38.074-3.249 57.004-.906 63.602 7.882 120.728 49.998 153.945 103.641 5.04 8.146 9.623 16.568 13.808 25.182 11.579 23.899 20.561 48.664 26.558 80.129z" fill="#57be92"/></g><g fill="#f3eae6"><circle cx="27.001" cy="231.512" r="24.742"/><circle cx="484.999" cy="231.512" r="24.742"/></g><path d="m51.741 231.508c0 13.665-11.079 24.744-24.744 24.744-7.495 0-14.215-3.34-18.747-8.615.081.01.173.01.255.01 13.665 0 24.744-11.079 24.744-24.744 0-6.16-2.25-11.792-5.988-16.119 13.544.132 24.48 11.16 24.48 24.724z" fill="#e1d3ce"/><circle cx="131.793" cy="24.746" fill="#f3eae6" r="24.742"/><g fill="#e1d3ce"><path d="m156.539 24.748c0 13.665-11.079 24.744-24.744 24.744-7.495 0-14.215-3.34-18.747-8.615.081.01.173.01.255.01 13.665 0 24.744-11.079 24.744-24.744 0-6.16-2.25-11.792-5.988-16.119 13.544.132 24.48 11.16 24.48 24.724z"/><path d="m509.74 231.51c0 13.665-11.079 24.744-24.734 24.744-7.505 0-14.226-3.34-18.757-8.615.081.01.173.01.255.01 13.665 0 24.744-11.079 24.744-24.744 0-6.16-2.25-11.792-5.988-16.119 13.544.132 24.48 11.15 24.48 24.724z"/></g></g><path d="m113.317 468.907v30.836c0 6.77 5.488 12.257 12.257 12.257h260.85c6.77 0 12.257-5.488 12.257-12.257v-30.836z" fill="#f3eae6"/><path d="m398.682 473.075v26.664c0 6.771-5.487 12.258-12.259 12.258h-20.707c6.771 0 12.259-5.487 12.259-12.258v-26.664z" fill="#e1d3ce"/><path d="m408.051 473.075h-304.102c-4.215 0-7.633-3.417-7.633-7.633v-32.741c0-4.215 3.417-7.633 7.633-7.633h304.102c4.215 0 7.633 3.417 7.633 7.633v32.741c0 4.216-3.418 7.633-7.633 7.633z" fill="#acacac"/><g fill="#fdb441"><path d="m132.942 425.069h40.392v48.007h-40.392z"/><path d="m213.726 425.069h40.392v48.007h-40.392z"/><path d="m294.509 425.069h40.392v48.007h-40.392z"/><path d="m408.051 473.075h-32.759v-48.007h32.759c4.215 0 7.633 3.417 7.633 7.633v32.741c0 4.216-3.418 7.633-7.633 7.633z"/></g><path d="m415.682 432.968v32.2c0 4.369-3.541 7.91-7.9 7.91h-20.2c4.369 0 7.9-3.541 7.9-7.91v-32.2c0-4.359-3.531-7.9-7.9-7.9h20.2c4.36.001 7.9 3.541 7.9 7.9z" fill="#fea613"/></g></svg>