<svg id="Capa_1" enable-background="new 0 0 512 512" height="512" viewBox="0 0 512 512" width="512" xmlns="http://www.w3.org/2000/svg"><g><path d="m444.486 264.907 13.089-5.884c2.608-1.172 2.608-4.875 0-6.047l-13.089-5.884c-6.27-2.819-8.796-10.295-5.681-16.424 1.445-2.843 2.07-6.173 1.562-9.682-.959-6.634-6.104-12.072-12.677-13.386-3.24-.648-6.336-.303-9.073.764-1.188.463-2.473-.372-2.473-1.647v-150.53c0-10.142-8.222-18.364-18.364-18.364h-91.295c-1.011 0-1.848-.838-1.786-1.847.018-.287.027-.576.027-.867 0-8.902-7.217-16.119-16.119-16.119-2.664 0-5.175.647-7.387 1.792-6.098 3.159-13.615.27-16.431-5.994l-5.768-12.831c-1.172-2.608-4.875-2.608-6.047 0l-5.768 12.831c-2.816 6.264-10.332 9.153-16.431 5.995-2.211-1.145-4.722-1.792-7.386-1.792-8.902 0-16.119 7.217-16.119 16.119 0 .291.009.581.027.867.062 1.009-.775 1.847-1.786 1.847h-91.296c-10.142 0-18.364 8.222-18.364 18.364v150.53c0 1.275-1.285 2.111-2.473 1.647-2.737-1.067-5.832-1.412-9.072-.764-6.572 1.315-11.717 6.752-12.677 13.386-.508 3.51.117 6.84 1.562 9.683 3.115 6.128.589 13.605-5.681 16.423l-13.089 5.884c-2.608 1.172-2.608 4.875 0 6.047l13.089 5.884c6.27 2.819 8.796 10.295 5.681 16.424-1.445 2.843-2.07 6.173-1.562 9.683.96 6.634 6.105 12.072 12.677 13.386 3.239.648 6.335.303 9.071-.764 1.188-.463 2.473.372 2.473 1.647v150.53c0 10.142 8.222 18.364 18.364 18.364h91.296c1.011 0 1.848.838 1.786 1.847-.018.287-.027.576-.027.867 0 8.902 7.217 16.119 16.119 16.119 2.664 0 5.175-.647 7.386-1.792 6.098-3.159 13.615-.269 16.431 5.995l5.768 12.831c1.172 2.608 4.875 2.608 6.047 0l5.768-12.831c2.816-6.264 10.332-9.153 16.431-5.994 2.211 1.145 4.723 1.792 7.387 1.792 8.902 0 16.119-7.217 16.119-16.119 0-.291-.009-.581-.027-.867-.062-1.009.775-1.847 1.786-1.847h91.295c10.142 0 18.364-8.222 18.364-18.364v-150.53c0-1.275 1.285-2.111 2.473-1.647 2.737 1.067 5.833 1.412 9.073.764 6.573-1.315 11.718-6.753 12.677-13.387.507-3.509-.117-6.839-1.562-9.682-3.114-6.13-.588-13.607 5.682-16.426zm-68.092 172.542h-240.789c-1.67 0-3.023-1.353-3.023-3.023v-356.852c0-1.67 1.354-3.023 3.023-3.023h240.789c1.67 0 3.023 1.354 3.023 3.023v356.852c0 1.67-1.353 3.023-3.023 3.023z" fill="#e49542"/><g fill="#e27d47"><path d="m132.582 434.426v-356.852c0-1.67 1.353-3.023 3.023-3.023h-5.32c-8.606 0-15.582 6.976-15.582 15.582v331.734c0 8.606 6.976 15.582 15.582 15.582h5.32c-1.669 0-3.023-1.353-3.023-3.023z"/><path d="m457.575 252.976-13.089-5.884c-6.27-2.818-8.796-10.295-5.681-16.423 1.445-2.843 2.07-6.173 1.562-9.683-.959-6.634-6.104-12.071-12.677-13.386-3.24-.648-6.335-.303-9.072.764-1.188.463-2.473-.372-2.473-1.647v-150.53c0-10.142-8.222-18.364-18.364-18.364h-17.879c10.142 0 18.364 8.222 18.364 18.364v138.002c0 6.63 4.816 12.151 11.333 13.37.071.013.142.027.212.041 6.572 1.315 11.717 6.753 12.677 13.386.508 3.51-.117 6.84-1.562 9.683-3.115 6.128-.589 13.605 5.681 16.423l13.089 5.884c2.608 1.172 2.608 4.875 0 6.047l-13.089 5.884c-6.271 2.819-8.795 10.296-5.68 16.424 1.445 2.843 2.069 6.172 1.562 9.681-.959 6.634-6.104 12.072-12.676 13.387-.071.014-.142.028-.213.041-6.517 1.219-11.333 6.741-11.333 13.37v138.002c0 10.142-8.222 18.364-18.364 18.364h17.879c10.142 0 18.364-8.222 18.364-18.364v-150.53c0-1.275 1.285-2.111 2.473-1.647 2.737 1.067 5.833 1.412 9.073.764 6.573-1.315 11.718-6.753 12.677-13.387.507-3.509-.117-6.839-1.562-9.682-3.115-6.129-.59-13.606 5.68-16.424l13.089-5.884c2.607-1.171 2.607-4.874-.001-6.046z"/></g><g><g><path d="m260.401 51.878h-8.802c-4.347 0-7.87-3.524-7.87-7.87s3.523-7.87 7.87-7.87h8.802c4.347 0 7.87 3.524 7.87 7.87s-3.523 7.87-7.87 7.87z" fill="#f6e738"/></g><g><path d="m260.401 477.85h-8.802c-4.347 0-7.87-3.523-7.87-7.87s3.523-7.87 7.87-7.87h8.802c4.347 0 7.87 3.523 7.87 7.87s-3.523 7.87-7.87 7.87z" fill="#f6e738"/></g></g><g><g><path d="m409.911 269.265c-4.347 0-7.87-3.523-7.87-7.87v-8.802c0-4.347 3.523-7.87 7.87-7.87s7.87 3.524 7.87 7.87v8.802c0 4.347-3.523 7.87-7.87 7.87z" fill="#f6e738"/></g><g><path d="m102.09 269.265c-4.347 0-7.87-3.523-7.87-7.87v-8.802c0-4.347 3.523-7.87 7.87-7.87s7.87 3.524 7.87 7.87v8.802c0 4.347-3.523 7.87-7.87 7.87z" fill="#f6e738"/></g></g></g></svg>