<svg id="Capa_1" enable-background="new 0 0 512 512" height="512" viewBox="0 0 512 512" width="512" xmlns="http://www.w3.org/2000/svg"><g><path d="m392.042 56.54c-13.235 0-25.966 2.149-37.871 6.107-26.595-34.824-68.541-57.299-115.743-57.299-66.51 0-122.599 44.61-139.983 105.54-1.845-.109-3.699-.181-5.571-.181-51.293 0-92.874 41.581-92.874 92.875 0 51.293 41.581 92.874 92.874 92.874h145.554 153.614c66.251 0 119.958-53.707 119.958-119.958s-53.707-119.958-119.958-119.958z" fill="#f6f1f1"/><path d="m238.425 5.347c26.785 0 51.869 7.232 73.421 19.872-6.531-.906-13.207-1.37-19.986-1.37-66.508 0-122.592 44.607-139.981 105.542-1.844-.113-3.698-.186-5.563-.186-51.303 0-92.881 41.578-92.881 92.871 0 30.411 14.608 57.412 37.2 74.349-50.262-1.186-90.635-42.29-90.635-92.841 0-51.293 41.578-92.881 92.871-92.881 1.875 0 3.729.072 5.573.186 17.379-60.935 73.473-105.542 139.981-105.542z" fill="#dfdfdf"/><path d="m512 506.653-184.66-284.473h-216.357l23.215 284.473" fill="#f6e266"/><path d="m327.34 222.18c-18.961 40.757-60.265 69.016-108.173 69.016-47.918 0-89.223-28.259-108.184-69.016 10.64-22.869 28.313-41.798 50.237-54.017 17.147-9.556 36.902-14.999 57.946-14.999 20.228 0 39.264 5.036 55.949 13.915v.011c22.849 12.165 41.273 31.534 52.225 55.09z" fill="#fff"/><path d="m218.447 292.426c-49.222 0-91.651-29.028-111.128-70.894 9.761-20.977 25.267-38.723 44.513-51.207-27.175 46.034 12.088 122.101 66.615 122.101z" fill="#f6f1f1"/><path d="m282.718 197.443c0 35.485-28.774 64.26-64.27 64.26s-64.27-28.775-64.27-64.26c0-10.544 2.545-20.496 7.043-29.279 17.147-9.556 36.902-14.999 57.946-14.999 20.228 0 39.264 5.036 55.949 13.915v.011c4.853 9.039 7.602 19.368 7.602 30.352z" fill="#6bbef6"/><circle cx="218.448" cy="197.439" fill="#454045" r="31.66"/><g fill="#fff"><path d="m395.933 492.826c-2.823 0-5.541-1.552-6.901-4.243l-64.404-127.439c-1.926-3.808-.398-8.456 3.41-10.381 3.807-1.924 8.456-.397 10.38 3.411l64.404 127.439c1.926 3.808.398 8.456-3.41 10.381-1.117.564-2.307.832-3.479.832z"/><path d="m316.454 431.162c-2.921 0-5.716-1.664-7.02-4.49l-24.665-53.442c-1.789-3.875-.097-8.465 3.778-10.253 3.873-1.788 8.465-.097 10.253 3.777l24.665 53.442c1.789 3.875.097 8.465-3.778 10.253-1.049.484-2.15.713-3.233.713z"/><path d="m230.116 484.605c-3.357 0-6.447-2.205-7.422-5.593l-28.776-100.033c-1.18-4.101 1.188-8.381 5.289-9.561 4.1-1.182 8.381 1.188 9.561 5.289l28.776 100.033c1.18 4.101-1.188 8.381-5.289 9.561-.713.206-1.433.304-2.139.304z"/></g><path d="m219.167 298.923c-49.207 0-94.421-28.844-115.189-73.483-.961-2.066-.961-4.452.001-6.518 11.221-24.117 30.214-44.54 53.481-57.507 18.755-10.452 40.093-15.977 61.707-15.977 20.759 0 41.361 5.125 59.579 14.821.117.062.231.126.343.194 24.123 12.94 43.737 33.692 55.258 58.471.961 2.066.961 4.451-.001 6.516-20.769 44.639-65.979 73.483-115.179 73.483zm-99.597-76.741c18.887 37.349 57.586 61.288 99.596 61.288 42.007 0 80.701-23.937 99.587-61.29-10.334-20.428-27.003-37.48-47.269-48.271-.109-.057-.215-.118-.32-.18-15.912-8.401-33.884-12.84-51.998-12.84-18.987 0-37.724 4.849-54.185 14.022-19.388 10.807-35.4 27.504-45.411 47.271z" fill="#f1b986"/></g></svg>