<svg id="Layer_1" enable-background="new 0 0 512 512" height="512" viewBox="0 0 512 512" width="512" xmlns="http://www.w3.org/2000/svg"><g><path d="m378.642 260.868 78.083 106.629c2.117 2.89-.209 6.918-3.772 6.531l-131.415-14.286c-3.572-.388-6.985 1.581-8.435 4.868l-53.332 120.914c-1.446 3.278-6.098 3.278-7.543 0l-53.332-120.914c-1.45-3.287-4.862-5.256-8.435-4.868l-131.414 14.286c-3.562.387-5.888-3.64-3.772-6.531l78.083-106.629c2.123-2.899 2.123-6.838 0-9.736l-78.083-106.629c-2.117-2.89.209-6.918 3.772-6.531l131.415 14.286c3.572.388 6.985-1.581 8.435-4.868l53.332-120.914c1.446-3.278 6.098-3.278 7.543 0l53.332 120.914c1.45 3.287 4.862 5.256 8.435 4.868l131.415-14.286c3.562-.387 5.888 3.64 3.772 6.531l-78.083 106.629c-2.124 2.898-2.124 6.838-.001 9.736z" fill="#fece3f"/><g fill="#feb920"><path d="m282.188 147.39c1.45 3.287 7.706 9.713 39.35 4.868-3.572.388-6.985-1.581-8.435-4.868l-53.331-120.915c-1.446-3.278-6.098-3.278-7.543 0l-11.687 26.495z"/><path d="m378.642 260.868c-2.123-2.899-2.123-6.838 0-9.736l78.083-106.629c2.117-2.89-.209-6.918-3.772-6.531l-26.537 2.885c.366 1.162.237 2.493-.607 3.646l-78.083 106.629c-2.123 2.899-2.123 6.838 0 9.736l78.083 106.629c.844 1.153.973 2.484.607 3.646l26.537 2.885c3.562.387 5.888-3.64 3.772-6.531z"/><path d="m281.179 366.897-40.637 92.133 11.686 26.495c1.446 3.278 6.098 3.278 7.543 0l53.332-120.914c1.45-3.287 4.862-5.256 8.435-4.868-31.165-4.846-36.82-.282-40.359 7.154z"/></g><g><g fill="#fda509"><g><ellipse cx="457.981" cy="139.59" rx="17.519" ry="17.513"/><ellipse cx="54.019" cy="139.59" rx="17.519" ry="17.513"/></g><g><ellipse cx="457.981" cy="372.41" rx="17.519" ry="17.513"/><ellipse cx="54.019" cy="372.41" rx="17.519" ry="17.513"/></g></g></g><ellipse cx="256" cy="256" fill="#fda509" rx="82.441" ry="82.414"/><path d="m256 166.085c-49.594 0-89.941 40.335-89.941 89.915s40.348 89.915 89.941 89.915 89.941-40.335 89.941-89.915-40.347-89.915-89.941-89.915zm0 164.83c-41.323 0-74.941-33.606-74.941-74.915s33.619-74.915 74.941-74.915c41.323 0 74.941 33.606 74.941 74.915s-33.618 74.915-74.941 74.915z" fill="#feb920"/><path d="m259.165 208.285 11.488 23.27c.514 1.042 1.508 1.763 2.658 1.93l25.689 3.732c2.895.421 4.052 3.978 1.956 6.019l-18.588 18.113c-.832.811-1.212 1.979-1.015 3.124l4.388 25.576c.495 2.883-2.532 5.081-5.122 3.72l-22.976-12.075c-1.028-.54-2.257-.54-3.285 0l-22.976 12.075c-2.59 1.361-5.616-.837-5.122-3.72l4.388-25.576c.196-1.145-.183-2.313-1.015-3.124l-18.588-18.113c-2.095-2.042-.939-5.599 1.956-6.019l25.688-3.732c1.15-.167 2.144-.889 2.658-1.93l11.488-23.27c1.294-2.623 5.036-2.623 6.33 0z" fill="#feb920"/><g fill="#fda509"><ellipse cx="256" cy="17.513" rx="17.519" ry="17.513"/><ellipse cx="256" cy="494.487" rx="17.519" ry="17.513"/></g></g></svg>